<svg width="657.9px" height="122px" xmlns="http://www.w3.org/2000/svg" viewBox="-78.94687499999998 14 657.89375 122" style="background: rgba(0, 0, 0, 0)" preserveAspectRatio="xMidYMid"><defs><linearGradient id="editing-gradow-gradient" x1="0" x2="1" y1="0.5" y2="0.5" gradientUnits="objectBoundingBox"><stop offset="0" stop-color="#00faff"></stop><stop offset="1" stop-color="#0076ff"></stop></linearGradient><filter id="editing-gradow-filter" x="-100%" y="-100%" width="300%" height="300%"><feFlood flood-color="#fffcd9" result="flood"></feFlood><feComposite operator="in" in2="SourceAlpha" in="flood" result="shadow"></feComposite><feOffset dx="-4" dy="-4" in="SourceGraphic" result="offset-1"></feOffset><feOffset dx="4" dy="4" in="shadow" result="offset-2"></feOffset><feMerge><feMergeNode in="offset-2"></feMergeNode><feMergeNode in="offset-1"></feMergeNode></feMerge></filter></defs><g filter="url(#editing-gradow-filter)"><g transform="matrix(1.2,0,0,1.9,-27.5,242.4)"><path d="M -5 -70.9 L -18.9 -70.9 L -10.8 -113.1 L 3.3 -113.1 L -5 -70.9 Z M 50.8 -69.6 L 50.8 -69.6 L 50.8 -69.6 Q 43 -69.6 43 -75.6 L 43 -75.6 L 43 -75.6 Q 43 -78.2 44.1 -83.3 L 44.1 -83.3 L 44.1 -83.3 Q 45.3 -88.4 45.6 -90.5 L 45.6 -90.5 L 45.6 -90.5 Q 46.5 -95.1 46.5 -96.6 L 46.5 -96.6 L 46.5 -96.6 Q 46.5 -99.9 44.1 -99.9 L 44.1 -99.9 L 44.1 -99.9 Q 42.5 -99.9 41 -97.7 L 41 -97.7 L 41 -97.7 Q 39.4 -95.5 38.7 -91 L 38.7 -91 L 34.8 -70.9 L 22.3 -69.6 L 25.7 -87 L 25.7 -87 Q 26.3 -89.9 26.8 -93.1 L 26.8 -93.1 L 26.8 -93.1 Q 27.3 -96.4 27.3 -96.9 L 27.3 -96.9 L 27.3 -96.9 Q 27.3 -99.9 25.2 -99.9 L 25.2 -99.9 L 25.2 -99.9 Q 23.7 -99.9 22.1 -97.7 L 22.1 -97.7 L 22.1 -97.7 Q 20.5 -95.5 19.6 -91 L 19.6 -91 L 15.7 -70.9 L 3.1 -69.6 L 9.8 -103.5 L 20.2 -104.8 L 19.1 -98.3 L 19.1 -98.3 Q 20.8 -101.8 23.9 -103.3 L 23.9 -103.3 L 23.9 -103.3 Q 27 -104.8 31.8 -104.8 L 31.8 -104.8 L 31.8 -104.8 Q 34.5 -104.8 36.3 -103.5 L 36.3 -103.5 L 36.3 -103.5 Q 38.1 -102.1 38.7 -99.9 L 38.7 -99.9 L 38.7 -99.9 Q 39.8 -102.2 42.5 -103.5 L 42.5 -103.5 L 42.5 -103.5 Q 45.3 -104.8 48.7 -104.8 L 48.7 -104.8 L 48.7 -104.8 Q 52.2 -104.8 53.9 -104.1 L 53.9 -104.1 L 53.9 -104.1 Q 55.6 -103.3 56.6 -102.1 L 56.6 -102.1 L 56.6 -102.1 Q 58.3 -99.9 58.3 -95.8 L 58.3 -95.8 L 58.3 -95.8 Q 58.3 -91.7 56.6 -83.4 L 56.6 -83.4 L 56.6 -83.4 Q 55.7 -79.3 55.7 -77.8 L 55.7 -77.8 L 55.7 -77.8 Q 55.7 -76.3 56.6 -75.4 L 56.6 -75.4 L 56.6 -75.4 Q 57.4 -74.5 58.7 -74.3 L 58.7 -74.3 L 58.7 -74.3 Q 58.1 -72.2 55.9 -70.9 L 55.9 -70.9 L 55.9 -70.9 Q 53.6 -69.6 50.8 -69.6 Z M 66.4 -72.8 L 66.4 -72.8 L 66.4 -72.8 Q 64.9 -74.5 64.2 -77.1 L 64.2 -77.1 L 64.2 -77.1 Q 63.6 -79.7 63.6 -84 L 63.6 -84 L 63.6 -84 Q 63.6 -88.3 65 -92.2 L 65 -92.2 L 65 -92.2 Q 66.5 -96.1 69.2 -98.9 L 69.2 -98.9 L 69.2 -98.9 Q 74.7 -104.8 83.8 -104.8 L 83.8 -104.8 L 83.8 -104.8 Q 87.1 -104.8 89.4 -103.7 L 89.4 -103.7 L 100.4 -104.8 L 95.6 -79.8 L 95.6 -79.8 Q 95.4 -79.1 95.4 -77.7 L 95.4 -77.7 L 95.4 -77.7 Q 95.4 -76.3 96.3 -75.4 L 96.3 -75.4 L 96.3 -75.4 Q 97.2 -74.5 98.4 -74.3 L 98.4 -74.3 L 98.4 -74.3 Q 97.8 -72.2 95.5 -70.9 L 95.5 -70.9 L 95.5 -70.9 Q 93.1 -69.6 90.5 -69.6 L 90.5 -69.6 L 90.5 -69.6 Q 87.9 -69.6 86.1 -70.6 L 86.1 -70.6 L 86.1 -70.6 Q 84.4 -71.6 83.9 -73.2 L 83.9 -73.2 L 83.9 -73.2 Q 82.8 -71.6 80.7 -70.6 L 80.7 -70.6 L 80.7 -70.6 Q 78.5 -69.6 75.6 -69.6 L 75.6 -69.6 L 75.6 -69.6 Q 72.7 -69.6 70.3 -70.4 L 70.3 -70.4 L 70.3 -70.4 Q 67.9 -71.1 66.4 -72.8 Z M 79.9 -98.8 L 79.9 -98.8 L 79.9 -98.8 Q 79.2 -97.6 78.5 -95.7 L 78.5 -95.7 L 78.5 -95.7 Q 77.9 -93.7 76.8 -88.5 L 76.8 -88.5 L 76.8 -88.5 Q 75.8 -83.3 75.8 -79.6 L 75.8 -79.6 L 75.8 -79.6 Q 75.8 -75.9 76.4 -74.8 L 76.4 -74.8 L 76.4 -74.8 Q 76.9 -73.7 78 -73.7 L 78 -73.7 L 78 -73.7 Q 80 -73.7 81.5 -75.6 L 81.5 -75.6 L 81.5 -75.6 Q 83 -77.6 83.6 -81.1 L 83.6 -81.1 L 87 -99.8 L 87 -99.8 Q 85.6 -101 84.1 -101 L 84.1 -101 L 84.1 -101 Q 82.5 -101 81.6 -100.4 L 81.6 -100.4 L 81.6 -100.4 Q 80.7 -99.9 79.9 -98.8 Z M 108.1 -97.6 L 108.1 -97.6 L 108.1 -97.6 Q 110.3 -100.7 113.6 -102.7 L 113.6 -102.7 L 113.6 -102.7 Q 116.9 -104.8 120.9 -104.8 L 120.9 -104.8 L 120.9 -104.8 Q 124.9 -104.8 126.9 -103.5 L 126.9 -103.5 L 139.4 -104.8 L 135.1 -80.2 L 135.1 -80.2 Q 132.8 -67.7 128.1 -62.7 L 128.1 -62.7 L 128.1 -62.7 Q 123.5 -58.1 114.7 -58.1 L 114.7 -58.1 L 114.7 -58.1 Q 108 -58.1 104.1 -60.2 L 104.1 -60.2 L 104.1 -60.2 Q 100.3 -62.3 100.3 -65.8 L 100.3 -65.8 L 100.3 -65.8 Q 100.3 -68.4 102.3 -69.9 L 102.3 -69.9 L 102.3 -69.9 Q 104.3 -71.5 107.3 -71.5 L 107.3 -71.5 L 107.3 -71.5 Q 110 -71.5 112.1 -70.2 L 112.1 -70.2 L 112.1 -70.2 Q 113.3 -69.6 113.9 -68.7 L 113.9 -68.7 L 113.9 -68.7 Q 112.4 -67.4 112.4 -65.3 L 112.4 -65.3 L 112.4 -65.3 Q 112.4 -62.6 115 -62.6 L 115 -62.6 L 115 -62.6 Q 119.2 -62.6 121.7 -72.7 L 121.7 -72.7 L 121.7 -72.7 Q 122.4 -75.4 123 -78.2 L 123 -78.2 L 123 -78.2 Q 120.1 -74.7 113.5 -74.7 L 113.5 -74.7 L 113.5 -74.7 Q 109 -74.7 106.4 -76.8 L 106.4 -76.8 L 106.4 -76.8 Q 103.8 -79 103.8 -84.1 L 103.8 -84.1 L 103.8 -84.1 Q 103.8 -87.3 104.8 -90.9 L 104.8 -90.9 L 104.8 -90.9 Q 105.9 -94.6 108.1 -97.6 Z M 116.4 -83.9 L 116.4 -83.9 L 116.4 -83.9 Q 116.4 -79.6 118.7 -79.6 L 118.7 -79.6 L 118.7 -79.6 Q 120.2 -79.6 121.7 -81.2 L 121.7 -81.2 L 121.7 -81.2 Q 122.8 -82.6 123.3 -84.6 L 123.3 -84.6 L 126.5 -101 L 126.5 -101 Q 126.2 -101.1 125.9 -101.2 L 125.9 -101.2 L 125.9 -101.2 Q 125.3 -101.5 124.4 -101.5 L 124.4 -101.5 L 124.4 -101.5 Q 120.5 -101.5 118.2 -95.1 L 118.2 -95.1 L 118.2 -95.1 Q 116.4 -90.1 116.4 -83.9 Z M 167.8 -81.7 L 167.8 -81.7 L 167.8 -81.7 Q 169.4 -80.6 169.4 -78.2 L 169.4 -78.2 L 169.4 -78.2 Q 169.4 -75.8 168.2 -74.3 L 168.2 -74.3 L 168.2 -74.3 Q 167 -72.7 165 -71.7 L 165 -71.7 L 165 -71.7 Q 160.9 -69.6 156.5 -69.6 L 156.5 -69.6 L 156.5 -69.6 Q 152.1 -69.6 149.5 -70.6 L 149.5 -70.6 L 149.5 -70.6 Q 146.9 -71.5 145.2 -73.3 L 145.2 -73.3 L 145.2 -73.3 Q 141.8 -76.7 141.8 -82.9 L 141.8 -82.9 L 141.8 -82.9 Q 141.8 -92.6 147 -98.5 L 147 -98.5 L 147 -98.5 Q 152.7 -104.8 162.4 -104.8 L 162.4 -104.8 L 162.4 -104.8 Q 168.5 -104.8 171.5 -102.2 L 171.5 -102.2 L 171.5 -102.2 Q 173.8 -100.3 173.8 -97.2 L 173.8 -97.2 L 173.8 -97.2 Q 173.8 -85.9 154.3 -85.9 L 154.3 -85.9 L 154.3 -85.9 Q 154.1 -84.3 154.1 -82.8 L 154.1 -82.8 L 154.1 -82.8 Q 154.1 -79.9 155.4 -78.8 L 155.4 -78.8 L 155.4 -78.8 Q 156.7 -77.7 159.1 -77.7 L 159.1 -77.7 L 159.1 -77.7 Q 161.5 -77.7 164.1 -78.8 L 164.1 -78.8 L 164.1 -78.8 Q 166.7 -79.9 167.8 -81.7 Z M 154.8 -88.7 L 154.8 -88.7 L 154.8 -88.7 Q 159.3 -88.7 161.9 -91.5 L 161.9 -91.5 L 161.9 -91.5 Q 164.6 -94.2 164.6 -98.5 L 164.6 -98.5 L 164.6 -98.5 Q 164.6 -99.9 164 -100.7 L 164 -100.7 L 164 -100.7 Q 163.5 -101.5 162.4 -101.5 L 162.4 -101.5 L 162.4 -101.5 Q 161.3 -101.5 160.4 -101.1 L 160.4 -101.1 L 160.4 -101.1 Q 159.4 -100.7 158.5 -99.3 L 158.5 -99.3 L 158.5 -99.3 Q 156.1 -96.1 154.8 -88.7 Z M 195.1 -93.3 L 195.1 -93.3 L 195.1 -93.3 Q 196 -95.7 196 -97.8 L 196 -97.8 L 196 -97.8 Q 196 -101.5 192.9 -101.5 L 192.9 -101.5 L 192.9 -101.5 Q 191.3 -101.5 190 -100.1 L 190 -100.1 L 190 -100.1 Q 188.7 -98.7 188.7 -96.9 L 188.7 -96.9 L 188.7 -96.9 Q 188.7 -95.6 189.7 -94.6 L 189.7 -94.6 L 189.7 -94.6 Q 191.2 -93.1 195 -90.8 L 195 -90.8 L 195 -90.8 Q 198.7 -88.5 200.2 -86.7 L 200.2 -86.7 L 200.2 -86.7 Q 201.6 -84.8 201.6 -82.2 L 201.6 -82.2 L 201.6 -82.2 Q 201.6 -79.6 200.4 -77.2 L 200.4 -77.2 L 200.4 -77.2 Q 199.1 -74.8 196.9 -73.2 L 196.9 -73.2 L 196.9 -73.2 Q 192.1 -69.6 184.4 -69.6 L 184.4 -69.6 L 184.4 -69.6 Q 180.2 -69.6 177 -71.8 L 177 -71.8 L 177 -71.8 Q 173.8 -73.9 173.8 -76.4 L 173.8 -76.4 L 173.8 -76.4 Q 173.8 -78.9 175.7 -80.3 L 175.7 -80.3 L 175.7 -80.3 Q 177.5 -81.8 180.2 -81.8 L 180.2 -81.8 L 180.2 -81.8 Q 182.9 -81.8 184.5 -80.8 L 184.5 -80.8 L 184.5 -80.8 Q 183.7 -78.7 183.7 -77.3 L 183.7 -77.3 L 183.7 -77.3 Q 183.7 -73.1 187.3 -73.1 L 187.3 -73.1 L 187.3 -73.1 Q 188.8 -73.1 189.8 -74 L 189.8 -74 L 189.8 -74 Q 190.9 -75 190.9 -76.6 L 190.9 -76.6 L 190.9 -76.6 Q 190.9 -79.9 185.4 -83.4 L 185.4 -83.4 L 185.4 -83.4 Q 180.9 -86.3 179.9 -87.5 L 179.9 -87.5 L 179.9 -87.5 Q 178.1 -89.5 178.1 -92.1 L 178.1 -92.1 L 178.1 -92.1 Q 178.1 -94.6 179.3 -97.1 L 179.3 -97.1 L 179.3 -97.1 Q 180.6 -99.5 182.8 -101.2 L 182.8 -101.2 L 182.8 -101.2 Q 187.5 -104.8 195.6 -104.8 L 195.6 -104.8 L 195.6 -104.8 Q 199.8 -104.8 202.2 -103.1 L 202.2 -103.1 L 202.2 -103.1 Q 204.7 -101.5 204.7 -98.7 L 204.7 -98.7 L 204.7 -98.7 Q 204.7 -95.8 203 -94.2 L 203 -94.2 L 203 -94.2 Q 201.3 -92.6 198.2 -92.6 L 198.2 -92.6 L 198.2 -92.6 Q 196.1 -92.6 195.1 -93.3 Z M 246.2 -91.5 L 259.1 -92.6 L 259.1 -92.6 Q 254.5 -82.5 254.5 -70.8 L 254.5 -70.8 L 254.5 -70.8 Q 252.7 -69.6 250.2 -69.6 L 250.2 -69.6 L 250.2 -69.6 Q 247.7 -69.6 246.1 -70.8 L 246.1 -70.8 L 246.1 -70.8 Q 244.5 -72 244.2 -73.2 L 244.2 -73.2 L 244.2 -73.2 Q 242.6 -71.5 240 -70.6 L 240 -70.6 L 240 -70.6 Q 237.4 -69.6 234.6 -69.6 L 234.6 -69.6 L 234.6 -69.6 Q 231.9 -69.6 229.5 -70.5 L 229.5 -70.5 L 229.5 -70.5 Q 227.1 -71.4 225.2 -73.4 L 225.2 -73.4 L 225.2 -73.4 Q 221.1 -77.7 221.1 -86 L 221.1 -86 L 221.1 -86 Q 221.1 -98.8 228 -106.5 L 228 -106.5 L 228 -106.5 Q 235 -114.4 247.5 -114.4 L 247.5 -114.4 L 247.5 -114.4 Q 256.1 -114.4 259.2 -109.9 L 259.2 -109.9 L 259.2 -109.9 Q 260.2 -108.5 260.2 -106.8 L 260.2 -106.8 L 260.2 -106.8 Q 260.2 -105.1 259.4 -103.7 L 259.4 -103.7 L 259.4 -103.7 Q 258.7 -102.2 257.5 -101.1 L 257.5 -101.1 L 257.5 -101.1 Q 254.8 -98.5 251.4 -98.5 L 251.4 -98.5 L 251.4 -98.5 Q 250.1 -98.5 248.8 -99 L 248.8 -99 L 248.8 -99 Q 249 -100.9 249 -103.1 L 249 -103.1 L 249 -103.1 Q 249 -105.4 248.9 -106.4 L 248.9 -106.4 L 248.9 -106.4 Q 248.7 -107.4 248.3 -108.3 L 248.3 -108.3 L 248.3 -108.3 Q 247.5 -110 245.7 -110 L 245.7 -110 L 245.7 -110 Q 243.9 -110 241.8 -108 L 241.8 -108 L 241.8 -108 Q 239.8 -106.1 238.2 -102.9 L 238.2 -102.9 L 238.2 -102.9 Q 234.7 -95.7 234.7 -87.1 L 234.7 -87.1 L 234.7 -87.1 Q 234.7 -83.1 236.2 -80.3 L 236.2 -80.3 L 236.2 -80.3 Q 237.9 -77.2 240.8 -77.2 L 240.8 -77.2 L 240.8 -77.2 Q 241.9 -77.2 242.8 -77.7 L 242.8 -77.7 L 242.8 -77.7 Q 243.7 -78.2 244.1 -78.6 L 244.1 -78.6 L 246.2 -91.5 Z M 265 -72.8 L 265 -72.8 L 265 -72.8 Q 263.5 -74.5 262.8 -77.1 L 262.8 -77.1 L 262.8 -77.1 Q 262.2 -79.7 262.2 -84 L 262.2 -84 L 262.2 -84 Q 262.2 -88.3 263.6 -92.2 L 263.6 -92.2 L 263.6 -92.2 Q 265.1 -96.1 267.8 -98.9 L 267.8 -98.9 L 267.8 -98.9 Q 273.3 -104.8 282.4 -104.8 L 282.4 -104.8 L 282.4 -104.8 Q 285.6 -104.8 288 -103.7 L 288 -103.7 L 299 -104.8 L 294.2 -79.8 L 294.2 -79.8 Q 294 -79.1 294 -77.7 L 294 -77.7 L 294 -77.7 Q 294 -76.3 294.9 -75.4 L 294.9 -75.4 L 294.9 -75.4 Q 295.8 -74.5 297 -74.3 L 297 -74.3 L 297 -74.3 Q 296.4 -72.2 294.1 -70.9 L 294.1 -70.9 L 294.1 -70.9 Q 291.7 -69.6 289.1 -69.6 L 289.1 -69.6 L 289.1 -69.6 Q 286.5 -69.6 284.7 -70.6 L 284.7 -70.6 L 284.7 -70.6 Q 283 -71.6 282.4 -73.2 L 282.4 -73.2 L 282.4 -73.2 Q 281.4 -71.6 279.2 -70.6 L 279.2 -70.6 L 279.2 -70.6 Q 277.1 -69.6 274.2 -69.6 L 274.2 -69.6 L 274.2 -69.6 Q 271.2 -69.6 268.9 -70.4 L 268.9 -70.4 L 268.9 -70.4 Q 266.5 -71.1 265 -72.8 Z M 278.5 -98.8 L 278.5 -98.8 L 278.5 -98.8 Q 277.8 -97.6 277.1 -95.7 L 277.1 -95.7 L 277.1 -95.7 Q 276.5 -93.7 275.4 -88.5 L 275.4 -88.5 L 275.4 -88.5 Q 274.4 -83.3 274.4 -79.6 L 274.4 -79.6 L 274.4 -79.6 Q 274.4 -75.9 275 -74.8 L 275 -74.8 L 275 -74.8 Q 275.5 -73.7 276.6 -73.7 L 276.6 -73.7 L 276.6 -73.7 Q 278.6 -73.7 280.1 -75.6 L 280.1 -75.6 L 280.1 -75.6 Q 281.6 -77.6 282.2 -81.1 L 282.2 -81.1 L 285.6 -99.8 L 285.6 -99.8 Q 284.2 -101 282.7 -101 L 282.7 -101 L 282.7 -101 Q 281.1 -101 280.2 -100.4 L 280.2 -100.4 L 280.2 -100.4 Q 279.2 -99.9 278.5 -98.8 Z M 317.7 -74.4 L 317.7 -74.4 L 317.7 -74.4 Q 315.7 -69.6 309.4 -69.6 L 309.4 -69.6 L 309.4 -69.6 Q 306.2 -69.6 304.1 -71.8 L 304.1 -71.8 L 304.1 -71.8 Q 302.5 -73.7 302.5 -75.8 L 302.5 -75.8 L 302.5 -75.8 Q 302.5 -80.6 304.7 -91.1 L 304.7 -91.1 L 309.4 -115.7 L 322.4 -117 L 316.2 -84.6 L 316.2 -84.6 Q 315.1 -79.8 315.1 -78.2 L 315.1 -78.2 L 315.1 -78.2 Q 315.1 -74.5 317.7 -74.4 Z M 338.4 -74.4 L 338.4 -74.4 L 338.4 -74.4 Q 336.5 -69.6 330.1 -69.6 L 330.1 -69.6 L 330.1 -69.6 Q 326.9 -69.6 324.9 -71.8 L 324.9 -71.8 L 324.9 -71.8 Q 323.2 -73.7 323.2 -75.8 L 323.2 -75.8 L 323.2 -75.8 Q 323.2 -80.6 325.5 -91.1 L 325.5 -91.1 L 330.1 -115.7 L 343.1 -117 L 336.9 -84.6 L 336.9 -84.6 Q 335.8 -79.8 335.8 -78.2 L 335.8 -78.2 L 335.8 -78.2 Q 335.8 -74.5 338.4 -74.4 Z M 369.8 -81.7 L 369.8 -81.7 L 369.8 -81.7 Q 371.4 -80.6 371.4 -78.2 L 371.4 -78.2 L 371.4 -78.2 Q 371.4 -75.8 370.2 -74.3 L 370.2 -74.3 L 370.2 -74.3 Q 369 -72.7 367 -71.7 L 367 -71.7 L 367 -71.7 Q 362.9 -69.6 358.5 -69.6 L 358.5 -69.6 L 358.5 -69.6 Q 354.1 -69.6 351.5 -70.6 L 351.5 -70.6 L 351.5 -70.6 Q 348.9 -71.5 347.1 -73.3 L 347.1 -73.3 L 347.1 -73.3 Q 343.8 -76.7 343.8 -82.9 L 343.8 -82.9 L 343.8 -82.9 Q 343.8 -92.6 349 -98.5 L 349 -98.5 L 349 -98.5 Q 354.6 -104.8 364.4 -104.8 L 364.4 -104.8 L 364.4 -104.8 Q 370.5 -104.8 373.5 -102.2 L 373.5 -102.2 L 373.5 -102.2 Q 375.8 -100.3 375.8 -97.2 L 375.8 -97.2 L 375.8 -97.2 Q 375.8 -85.9 356.3 -85.9 L 356.3 -85.9 L 356.3 -85.9 Q 356 -84.3 356 -82.8 L 356 -82.8 L 356 -82.8 Q 356 -79.9 357.4 -78.8 L 357.4 -78.8 L 357.4 -78.8 Q 358.7 -77.7 361.1 -77.7 L 361.1 -77.7 L 361.1 -77.7 Q 363.5 -77.7 366.1 -78.8 L 366.1 -78.8 L 366.1 -78.8 Q 368.7 -79.9 369.8 -81.7 Z M 356.7 -88.7 L 356.7 -88.7 L 356.7 -88.7 Q 361.3 -88.7 363.9 -91.5 L 363.9 -91.5 L 363.9 -91.5 Q 366.5 -94.2 366.5 -98.5 L 366.5 -98.5 L 366.5 -98.5 Q 366.5 -99.9 366 -100.7 L 366 -100.7 L 366 -100.7 Q 365.5 -101.5 364.4 -101.5 L 364.4 -101.5 L 364.4 -101.5 Q 363.3 -101.5 362.3 -101.1 L 362.3 -101.1 L 362.3 -101.1 Q 361.4 -100.7 360.5 -99.3 L 360.5 -99.3 L 360.5 -99.3 Q 358.1 -96.1 356.7 -88.7 Z M 398 -88.9 L 398 -88.9 L 398 -88.9 Q 400.3 -93 400.3 -97.1 L 400.3 -97.1 L 400.3 -97.1 Q 400.3 -99.9 398.3 -99.9 L 398.3 -99.9 L 398.3 -99.9 Q 396.7 -99.9 395.1 -97.2 L 395.1 -97.2 L 395.1 -97.2 Q 393.5 -94.6 393 -91.2 L 393 -91.2 L 389.6 -70.9 L 376.4 -69.6 L 382.9 -103.5 L 393.5 -104.8 L 392.3 -98.3 L 392.3 -98.3 Q 395.5 -104.8 402.5 -104.8 L 402.5 -104.8 L 402.5 -104.8 Q 406.2 -104.8 408.2 -102.9 L 408.2 -102.9 L 408.2 -102.9 Q 410.3 -101 410.3 -97 L 410.3 -97 L 410.3 -97 Q 410.3 -93.1 407.7 -90.6 L 407.7 -90.6 L 407.7 -90.6 Q 405.1 -88.1 400.7 -88.1 L 400.7 -88.1 L 400.7 -88.1 Q 398.7 -88.1 398 -88.9 Z M 431.6 -78.1 L 431.6 -78.1 L 431.6 -78.1 Q 428.3 -74.7 422.2 -74.7 L 422.2 -74.7 L 422.2 -74.7 Q 414.6 -74.7 413 -80.2 L 413 -80.2 L 413 -80.2 Q 412.5 -81.9 412.5 -83.7 L 412.5 -83.7 L 412.5 -83.7 Q 412.5 -85.6 412.9 -87.5 L 412.9 -87.5 L 415.9 -103.5 L 428.9 -104.8 L 425.4 -86.2 L 425.4 -86.2 Q 425.2 -85.3 425 -84.4 L 425 -84.4 L 425 -84.4 Q 424.8 -83.5 424.8 -82.6 L 424.8 -82.6 L 424.8 -82.6 Q 424.8 -81.7 425.2 -81.1 L 425.2 -81.1 L 425.2 -81.1 Q 425.5 -80.5 425.9 -80.1 L 425.9 -80.1 L 425.9 -80.1 Q 426.7 -79.6 428.1 -79.6 L 428.1 -79.6 L 428.1 -79.6 Q 429.5 -79.6 430.6 -81.2 L 430.6 -81.2 L 430.6 -81.2 Q 431.8 -82.9 432.4 -85.8 L 432.4 -85.8 L 435.9 -103.5 L 448.5 -104.8 L 443.7 -79.6 L 443.7 -79.6 Q 441.4 -67.4 436.5 -62.5 L 436.5 -62.5 L 436.5 -62.5 Q 434 -60 430.8 -59 L 430.8 -59 L 430.8 -59 Q 427.5 -58 423.4 -58 L 423.4 -58 L 423.4 -58 Q 416.7 -58 412.8 -60.1 L 412.8 -60.1 L 412.8 -60.1 Q 409 -62.2 409 -65.8 L 409 -65.8 L 409 -65.8 Q 409 -68.4 411 -69.9 L 411 -69.9 L 411 -69.9 Q 412.9 -71.4 416 -71.4 L 416 -71.4 L 416 -71.4 Q 418.7 -71.4 420.7 -70.2 L 420.7 -70.2 L 420.7 -70.2 Q 422 -69.5 422.5 -68.6 L 422.5 -68.6 L 422.5 -68.6 Q 421.1 -67.4 421.1 -65.2 L 421.1 -65.2 L 421.1 -65.2 Q 421.1 -62.4 423.6 -62.4 L 423.6 -62.4 L 423.6 -62.4 Q 427.9 -62.4 430.3 -72.2 L 430.3 -72.2 L 430.3 -72.2 Q 431 -75 431.6 -78.1 Z" fill="url(#editing-gradow-gradient)"></path></g></g><style>text {
  font-size: 64px;
  font-family: Arial Black;
  dominant-baseline: central;
  text-anchor: middle;
}</style></svg>